<?xml version="1.0" standalone="no"?>
<!DOCTYPE svg PUBLIC "-//W3C//DTD SVG 20010904//EN"
 "http://www.w3.org/TR/2001/REC-SVG-20010904/DTD/svg10.dtd">
<svg version="1.0" xmlns="http://www.w3.org/2000/svg"
 width="480.000000pt" height="480.000000pt" viewBox="0 0 480.000000 480.000000"
 preserveAspectRatio="xMidYMid meet">

<g transform="translate(0.000000,480.000000) scale(0.100000,-0.100000)"
fill="#ffff00" stroke="none">
<path d="M2100 4650 l0 -150 -150 0 -150 0 0 -1200 0 -1200 -450 0 -450 0 0
-150 0 -150 -150 0 -150 0 0 -150 0 -150 150 0 150 0 0 -150 0 -150 150 0 150
0 0 -150 0 -150 150 0 150 0 0 -150 0 -150 150 0 150 0 0 -150 0 -150 150 0
150 0 0 -150 0 -150 300 0 300 0 0 150 0 150 150 0 150 0 0 150 0 150 150 0
150 0 0 150 0 150 150 0 150 0 0 150 0 150 150 0 150 0 0 150 0 150 150 0 150
0 0 150 0 150 -150 0 -150 0 0 150 0 150 -450 0 -450 0 0 1200 0 1200 -150 0
-150 0 0 150 0 150 -300 0 -300 0 0 -150z m600 -1350 l0 -1200 150 0 150 0 0
-150 0 -150 450 0 450 0 0 -150 0 -150 -150 0 -150 0 0 -150 0 -150 -150 0
-150 0 0 -150 0 -150 -150 0 -150 0 0 -150 0 -150 -150 0 -150 0 0 -150 0
-150 -300 0 -300 0 0 150 0 150 -150 0 -150 0 0 150 0 150 -150 0 -150 0 0
150 0 150 -150 0 -150 0 0 150 0 150 -150 0 -150 0 0 150 0 150 450 0 450 0 0
150 0 150 150 0 150 0 0 1200 0 1200 300 0 300 0 0 -1200z"/>
</g>
</svg>
